<svg xmlns="http://www.w3.org/2000/svg" viewBox="56 68 400 400" role="img" aria-labelledby="title desc">
  <title id="title">SayDeck icon</title>
  <desc id="desc">A compact rounded speech bubble icon with three dots.</desc>
  <defs>
    <linearGradient id="bubble" x1="96" x2="416" y1="104" y2="408" gradientUnits="userSpaceOnUse">
      <stop offset="0" stop-color="#1f6f5b"/>
      <stop offset="1" stop-color="#375a8c"/>
    </linearGradient>
  </defs>

  <g>
    <path
      d="M128 112H384C420 112 448 140 448 176V296C448 332 420 360 384 360H280L205 418C196 425 184 418 184 407V360H128C92 360 64 332 64 296V176C64 140 92 112 128 112Z"
      fill="url(#bubble)"
    />
    <path
      d="M128 112H384C420 112 448 140 448 176V296C448 332 420 360 384 360H280L205 418C196 425 184 418 184 407V360H128C92 360 64 332 64 296V176C64 140 92 112 128 112Z"
      fill="none"
      stroke="#15483d"
      stroke-opacity="0.18"
      stroke-width="10"
    />
    <circle cx="192" cy="238" r="24" fill="#fffefa"/>
    <circle cx="256" cy="238" r="24" fill="#fffefa"/>
    <circle cx="320" cy="238" r="24" fill="#fffefa"/>
  </g>
</svg>
